# xmcd
#
# Track frame offsets: 
#        150
#        16619
#        27195
#        42073
#        48435
#        63439
#        76465
#        88695
#        103219
#        116512
#        129166
#        134818
#        147812
#        163049
#        183510
#        196234
#        206067
#
# Disc length: 2791 seconds
#
# Revision: 7
# Processed by: cddbd v1.5.2PL0 Copyright (c) Steve Scherf et al.
# Submitted via: ExactAudioCopyFreeDBPlugin 1.0
#
DISCID=e80ae511
DTITLE=Bourbon Skiffle Company - Still Alive! - 25 Jahre Bourbon Skiff
DTITLE=le Company - 1972-1997
DYEAR=1997
DGENRE=Skiffle
TTITLE0=Mama Don't Allow
TTITLE1=Light From The Lighthouse
TTITLE2=Gamblin' Man
TTITLE3=Don't You Rock Me
TTITLE4=I Saw The Light
TTITLE5=Cigarettes And Whiskey
TTITLE6=Honky Tonk Woman
TTITLE7=Sweet Georgia Brown
TTITLE8=Are You Lonesome Tonight
TTITLE9=John Henry
TTITLE10=Hey Liley Lo
TTITLE11=Sally Was A Good Old Girl
TTITLE12=I Can't Give You Anything But Love
TTITLE13=Old Time Religion
TTITLE14=Ice-Cream
TTITLE15=Bye, Bye Love
TTITLE16=This Was....
EXTD=
EXTT0=
EXTT1=
EXTT2=
EXTT3=
EXTT4=
EXTT5=
EXTT6=
EXTT7=
EXTT8=
EXTT9=
EXTT10=
EXTT11=
EXTT12=
EXTT13=
EXTT14=
EXTT15=
EXTT16=
PLAYORDER=
